<?xml version="1.0" encoding="UTF-8" standalone="no"?>
<!-- Created with Inkscape (http://www.inkscape.org/) -->

<svg
   version="1.1"
   id="svg1"
   width="1487.36"
   height="853.44"
   viewBox="0 0 1487.36 853.44"
   sodipodi:docname="logo colorida.svg"
   inkscape:version="1.3 (0e150ed6c4, 2023-07-21)"
   xmlns:inkscape="http://www.inkscape.org/namespaces/inkscape"
   xmlns:sodipodi="http://sodipodi.sourceforge.net/DTD/sodipodi-0.dtd"
   xmlns="http://www.w3.org/2000/svg"
   xmlns:svg="http://www.w3.org/2000/svg">
  <defs
     id="defs1" />
  <sodipodi:namedview
     id="namedview1"
     pagecolor="#000000"
     bordercolor="#000000"
     borderopacity="0.25"
     inkscape:showpageshadow="2"
     inkscape:pageopacity="0.0"
     inkscape:pagecheckerboard="0"
     inkscape:deskcolor="#d1d1d1"
     inkscape:zoom="0.52437795"
     inkscape:cx="798.08848"
     inkscape:cy="372.82269"
     inkscape:window-width="1708"
     inkscape:window-height="871"
     inkscape:window-x="2391"
     inkscape:window-y="-9"
     inkscape:window-maximized="1"
     inkscape:current-layer="g1" />
  <g
     inkscape:groupmode="layer"
     inkscape:label="Image"
     id="g1">
    <path
       style="fill:#f5f5f5;stroke:none"
       d="m 519.03999,787.34486 c -9.65253,1.40015 -18.25921,5.6864 -27.83999,7.41625 -20.42231,3.68742 -40.80727,7.34703 -61.44,9.3689 -12.97934,1.27188 -26.02946,0.36297 -39.04,0.36297 -15.60289,0 -35.18493,-5.07812 -44.38813,11.84 -1.35121,2.48391 -2.27012,5.22375 -2.77781,8 -3.45481,18.89203 15.54402,27.79071 31.48594,27.19406 19.87261,-0.74367 40.04734,-2.81156 59.84,-4.75109 19.46964,-1.90789 38.90046,-2.1793 58.24,-5.67109 9.08195,-1.63985 18.14882,-3.31211 27.19999,-5.12446 5.20891,-1.04296 10.85989,-1.69726 15.68,-4.04593 13.78661,-6.71782 19.73297,-27.61969 7.68,-38.94227 -5.83574,-5.48203 -16.92421,-6.76664 -24.64,-5.64734 z"
       id="path3798" />
    <path
       style="fill:#f5f5f5;stroke:none"
       d="m 524.79999,715.66486 c -10.81187,1.56828 -21.78382,1.70625 -32.63999,2.79109 -8.79774,0.87914 -17.4761,2.85406 -26.24,4.03406 -11.34762,1.52789 -22.8202,2.20969 -34.24,2.63703 -18.12524,0.67836 -36.25286,-1.27406 -54.4,-1.27406 -7.48125,0 -14.93762,0.5061 -22.4,0.63852 -6.2084,0.11015 -13.12032,-0.385 -18.88,2.33484 -4.93192,2.32891 -8.86703,7.35852 -11.42815,12.06664 -1.53117,2.81477 -2.59316,6.05633 -2.65037,9.28 -0.046,2.59149 0.16625,5.17227 0.86963,7.68 4.68674,16.70992 26.57307,15.68 40.40889,15.68 16.37871,0 32.87648,0.92797 49.28,0.31406 24.79019,-0.92773 49.54585,-2.96164 74.24,-5.39109 11.42089,-1.12359 22.82957,-2.20078 34.23999,-3.52148 5.5445,-0.64172 12.87133,-0.75243 17.92,-3.22227 13.60227,-6.65422 19.17129,-27.59562 7.59704,-38.92734 -4.93469,-4.83133 -15.04891,-6.08149 -21.67704,-5.12"
       id="path3797" />
    <path
       style="fill:#f5f5f5;stroke:none"
       d="m 671.41038,699.17744 c -1.24554,0.73031 -1.01398,2.36609 -0.82078,3.55554 0.50688,3.1211 1.36946,6.20117 2.09039,9.28 2.68258,11.45578 2.34243,22.31797 1.88594,33.92 -0.10281,2.61211 -0.70133,5.3843 -0.27555,8 0.17149,1.05352 0.94852,2.33563 2.18961,1.87258 2.65938,-0.99227 5.37086,-5.00344 7.36,-6.99258 5.26438,-5.26437 10.97055,-10.14351 14.72,-16.64 1.84563,-3.19781 3.45532,-6.93578 1.82219,-10.56 -1.54094,-3.41961 -4.96797,-5.52547 -7.90219,-7.63554 -4.60757,-3.31352 -9.07343,-6.78946 -13.44,-10.41485 -1.54257,-1.2807 -5.34172,-5.72664 -7.62961,-4.38515"
       id="path3796" />
    <path
       id="path3795"
       style="fill:#f5f5f5;stroke:none"
       d="M 411.43164 174.98242 C 409.18576 175.03593 406.9676 175.18959 404.80078 175.50391 C 400.41938 176.13945 395.78304 175.74281 391.35938 176.03125 C 384.4127 176.48422 377.46003 177.31985 370.56055 178.33398 C 347.34053 181.74719 324.43519 189.17375 303.35938 199.45117 C 242.87873 228.94395 189.15037 281.30635 173.08008 348.49219 C 168.01838 369.65385 167.84519 391.28768 169.96289 412.8125 C 171.78476 431.33053 176.23775 449.18588 182.85156 466.57227 C 188.9276 482.54495 197.2871 497.49705 208.13281 510.73242 C 213.86238 517.7244 220.81007 523.86477 227.19922 530.25391 C 241.34414 544.39881 255.79925 558.19993 269.45898 572.8125 C 276.09423 579.91058 282.99422 586.77547 288.8418 594.57227 C 297.38421 605.96217 304.61282 620.29728 307.70898 634.25391 C 309.03353 640.2246 309.02541 646.12352 309.41992 652.17383 C 309.7592 657.37695 309.94842 662.97618 309.75391 668.17383 C 309.48444 675.37437 307.2936 680.19649 314.24023 685.07422 C 331.42565 697.14117 353.65185 692.4689 373.11914 692.81445 C 413.19554 693.52577 453.48718 694.92773 493.43945 690.93555 C 502.64502 690.01571 511.79963 688.80172 520.96094 687.45508 C 526.87062 686.5864 532.85271 685.88882 538.24023 683.13477 C 554.03956 675.05828 557.67799 648.01034 537.91992 642.38477 C 522.57252 638.01496 505.35123 644.50883 489.91992 646.05078 C 461.26561 648.91406 432.02274 648.65234 403.19922 648.65234 C 394.25501 648.65234 385.23354 648.61444 376.32031 648.0332 C 371.05567 647.68992 365.70812 647.91192 360.64062 646.07422 C 352.8007 643.2311 350.3039 630.18242 348.52148 623.05273 C 346.95614 616.7913 346.8887 609.97035 345.05273 603.85352 C 340.79625 589.6724 332.5558 575.53421 324.02734 563.5332 C 314.10104 549.56514 301.862 538.53007 289.59961 526.72656 C 275.77559 513.41994 262.17977 499.63729 250.37109 484.49219 C 213.79959 437.58782 204.37715 371.11093 234.69141 318.41211 C 246.89071 297.20463 265.40797 280.35904 284.80078 265.81445 C 318.39323 240.6201 359.27023 223.8916 401.2793 221.15234 C 415.90896 220.19839 430.64658 221.82664 445.11914 223.93164 C 476.01868 228.42589 504.66448 239.48177 528.64062 259.93359 C 546.08811 274.81639 561.4059 293.01534 570.42773 314.25391 C 576.40566 328.3267 578.37575 344.09787 586.05273 357.45312 C 591.19605 366.4007 601.96181 369.47293 611.51953 365.95898 C 619.65656 362.96739 626.1543 354.77815 626.1543 345.93359 C 626.1543 341.36505 624.89352 336.66671 624.13086 332.17383 C 622.96325 325.29544 622.25738 318.08937 620.34766 311.37305 C 615.22731 293.36537 606.29504 276.01381 595.94727 260.49219 C 559.3507 205.59736 496.46829 176.84078 431.67969 175.69141 C 425.14792 175.5755 418.16929 174.82189 411.43164 174.98242 z M 569.91992 388.49219 L 565.63477 388.96484 L 563.94727 393.61328 L 560.31641 405.45312 L 546.875 448.97266 L 511.99609 561.93359 L 500.34766 599.69336 L 495.35938 616.33203 L 537.2793 616.33203 L 548.16016 616.33203 L 552.11914 616.04883 L 553.37305 612.8125 L 555.97266 604.17383 L 563.01172 581.13281 L 565.75977 571.5332 L 609.59961 571.5332 L 621.43945 571.5332 C 622.75281 571.5332 625.01887 571.10438 626.17578 571.81836 C 627.09793 572.38743 627.24254 573.7802 627.51953 574.73242 C 628.32496 577.50137 629.10391 580.27899 629.89258 583.05273 C 632.07711 590.73547 634.24965 598.42439 636.48047 606.09375 C 637.29067 608.87914 637.71484 613.24563 639.375 615.62305 C 640.20152 616.80665 642.58524 616.33203 643.83984 616.33203 L 656.32031 616.33203 L 693.75977 616.33203 C 698.93695 616.33203 706.13017 617.6123 711.03906 616.01367 L 658.78711 449.61328 L 645.07617 405.77344 L 641.17188 393.29297 L 639.48047 388.77734 L 635.19922 388.49219 L 624.32031 388.49219 L 582.08008 388.49219 L 569.91992 388.49219 z M 596.16016 456.33203 L 603.38867 482.25391 L 614.40039 521.61328 L 577.91992 521.61328 L 582.26758 505.61328 L 589.94727 478.09375 L 593.875 464.01367 L 596.16016 456.33203 z M 566.49219 639.74805 C 566.25513 639.76514 566.02663 639.8138 565.81055 639.90039 C 563.02711 641.01578 567.7845 646.72949 568.64062 648.01367 C 574.92891 657.44608 577.42484 666.82704 576.27734 678.09375 C 575.83694 682.41758 574.21203 687.01837 571.70703 690.57227 C 569.76868 693.32218 566.36032 695.59945 566.09961 699.21289 C 565.73004 704.33555 570.06297 707.9861 572.54297 712.01367 C 576.03746 717.68883 578.1871 723.93094 578.83789 730.57227 C 579.6814 739.18007 578.60562 747.95852 574.89258 755.85352 C 572.73821 760.43429 567.44531 764.93368 567.44531 770.25391 C 567.44531 773.84617 570.0997 776.47656 572.02734 779.21289 C 573.83578 781.78 575.08016 784.61032 576.1875 787.5332 C 580.22379 798.18741 578.89351 807.99423 574.48828 818.25391 C 573.92546 819.56468 572.21325 824.2132 575.35938 823.50391 C 577.58961 823.00102 579.88434 821.09726 581.75977 819.85352 C 585.95812 817.06923 590.04923 814.11602 594.24023 811.32031 C 607.87417 802.22579 621.59549 793.46609 635.83984 785.34375 C 642.13836 781.75227 652.56352 778.23569 655.72266 771.21289 C 658.53586 764.959 656.77406 755.15124 656.33984 748.49219 C 655.54344 736.27837 654.76219 724.2089 653.48242 712.01367 C 652.76945 705.21946 652.33804 697.65632 649.9043 691.21289 C 647.1159 683.8304 638.06664 680.50524 631.67969 676.86328 C 616.46713 668.18884 601.2571 659.51863 586.24023 650.50977 C 581.35071 647.57645 576.62168 644.24836 571.51953 641.68945 C 570.23647 641.04592 568.15159 639.62839 566.49219 639.74805 z " />
    <path
       style="fill:#f2b705;stroke:none;fill-opacity:1"
       d="m 166.72,560.47076 c -3.82612,0.70558 -7.57758,2.518 -11.2,3.89035 -14.52487,5.50285 -27.47984,14.37836 -41.92,20.15558 -8.49723,3.39957 -18.808384,3.54157 -24.810373,11.33629 -10.122118,13.14547 0.0587,26.97063 10.410369,35.59703 4.366004,3.63836 9.203584,8.02657 15.360004,7.2 8.13019,-1.09156 14.95338,-7.39906 21.12,-12.33332 8.5129,-6.81164 16.35953,-14.34613 24.64,-21.42222 7.18369,-6.13883 15.37496,-12.23133 20.58222,-20.24149 6.32102,-9.72344 -1.38417,-26.54242 -14.18222,-24.18222"
       id="path3794" />
    <path
       id="path3793"
       style="fill:#0ec5cb;stroke:none;fill-opacity:1"
       d="M 1028.1602 388.49219 L 1028.1602 460.17383 L 1027.8398 460.17383 C 1025.3859 454.35879 1016.6241 449.36871 1011.1992 446.65625 C 989.66285 435.88806 960.2303 440.96185 943.72266 458.57812 C 923.83916 479.79693 918.94563 508.94741 919.99414 536.97266 C 920.69711 555.76139 923.79376 574.79455 933.89258 591.05273 C 949.49568 616.17224 983.7224 628.06944 1010.8809 614.49023 C 1018.5292 610.66606 1028.6698 602.98492 1031.0391 594.25391 L 1031.3594 594.25391 L 1031.3594 616.33203 L 1093.7598 616.33203 L 1093.7598 388.49219 L 1028.1602 388.49219 z M 1009.8555 484.39844 C 1016.4489 484.41463 1023.0302 487.45519 1025.7871 493.77344 C 1028.8749 500.85007 1028.1602 508.96298 1028.1602 516.49219 L 1028.1602 542.73242 C 1028.1602 549.14145 1028.4386 555.76028 1026.4023 561.93359 C 1024.0221 569.14929 1018.262 574.57239 1010.5605 575.33008 C 999.5445 576.41391 993.17349 567.32132 990.67969 557.77344 C 986.21879 540.69458 987.49867 520.81572 991.10547 503.69336 C 993.02297 494.59075 996.74331 485.90683 1007.0391 484.57617 C 1007.9704 484.45581 1008.9135 484.39612 1009.8555 484.39844 z " />
    <path
       style="fill:#f2b705;stroke:none;fill-opacity:1"
       d="m 1128.64,446.41298 v 99.84 c 0,17.10383 -2.2861,36.46231 6.8563,51.84 14.0126,23.56945 48.5304,27.01617 71.8637,16.41188 10.0842,-4.58301 21.413,-14.15348 24.32,-25.37188 h 0.32 v 27.2 h 46.4 11.2 c 0.9819,0 3.1915,0.40992 3.8755,-0.47258 1.2574,-1.62214 0.2845,-7.09203 0.2845,-9.12742 v -24.96 -97.28 -28.48 c 0,-1.76012 0.964,-8.20203 -0.4727,-9.31558 -0.973,-0.75422 -3.4729,-0.28442 -4.6473,-0.28442 h -12.48 -48.32 v 69.76 c 0,12.15824 1.2151,25.06977 -0.403,37.12 -1.3744,10.23516 -8.5463,17.92 -19.117,17.92 -3.2485,0 -6.8384,-0.48 -9.2592,-2.90074 -5.7151,-5.71492 -3.5408,-18.27809 -3.5408,-25.57926 v -67.52 -21.44 c 0,-1.44984 0.7523,-6.12609 -0.4727,-7.07558 -0.973,-0.75422 -3.4729,-0.28442 -4.6473,-0.28442 h -12.8 -48.96"
       id="path3791" />
    <path
       style="fill:#f25c05;stroke:none;fill-opacity:1"
       d="m 1487.36,552.33298 -34.56,-2.83703 -22.08,-1.96297 c -2.1305,6.30555 -2.2116,12.6934 -6.5511,18.24 -7.3772,9.42914 -23.8934,9.71922 -30.4311,-0.96 -8.1677,-13.3418 -6.7922,-33.71562 -5.3008,-48.64 0.5803,-5.80738 1.3642,-11.96625 3.9614,-17.28 4.3947,-8.99121 15.3167,-13.34367 24.2416,-7.86223 3.5683,2.19161 5.8159,5.79735 7.6015,9.46223 1.6046,3.29332 2.5015,6.98434 3.2147,10.56 0.2144,1.07488 0.1786,3.51754 1.1703,4.18965 1.2305,0.83395 4.8046,-0.23535 6.2535,-0.33039 6.1705,-0.40473 12.4256,-0.75531 18.56,-1.53629 8.4437,-1.07496 17.1069,-1.46516 25.6,-2.02223 1.5676,-0.10281 7.5595,0.12996 7.5215,-1.90816 -0.1523,-8.18613 -3.5123,-17.40832 -7.1245,-24.63258 -19.457,-38.91402 -67.4378,-50.04734 -106.317,-36.26223 -41.3014,14.64399 -59.2525,61.17239 -52.3467,101.86223 4.3018,25.34703 20.4179,49.23805 44.0267,60.38664 14.3526,6.7777 30.2555,9.63969 46.08,9.04742 31.7205,-1.18711 60.584,-17.51878 72.0133,-48.31406 2.2051,-5.9418 4.4622,-12.805 4.4667,-19.2"
       id="path3790" />
    <path
       style="fill:#f24452;stroke:none;fill-opacity:1"
       d="m 903.03999,616.33298 v -54.72 h -102.72 v -36.8 h 83.2 v -37.12 -9.6 l -0.28445,-3.68742 -5.15555,-0.47258 h -15.36 -62.4 v -32.64 h 102.72 v -52.8 h -126.72 -32.64 -8.32 l -3.36734,0.28442 -0.47266,3.23558 v 8.96 36.8 134.4 32.96 8 l 0.47266,2.91555 3.36734,0.28445 h 8.32 32.64 126.72"
       id="path3788" />
    <path
       style="fill:#f5f5f5;stroke:none"
       d="m 474.56,616.33298 v -227.84 h -52.48 -12.8 l -4.51559,0.47258 -0.28441,3.36742 v 8.64 33.92 130.56 37.12 9.6 l 0.28441,3.68742 4.51559,0.47258 h 12.8 52.48"
       id="path3786" />
    <path
       style="fill:#f2b705;stroke:none;fill-opacity:1"
       d="m 65.279999,387.98486 c -4.509301,0.65406 -9.211728,0.42363 -13.76,0.87109 -8.325644,0.81906 -16.487565,2.82922 -24.639999,4.62516 -6.546923,1.44226 -14.315222,2.80765 -19.1807414,7.81781 -8.57854686,8.83355 -9.2433059,24.00055 -6.0044437,35.19406 1.24396,4.29914 2.6132967,9.2734 6.6251847,11.81481 2.9175744,1.8482 7.2394224,1.6239 10.5600004,1.62519 5.844795,0.002 11.430102,0.38469 17.28,-0.40297 11.436279,-1.5398 22.6506,-5.24172 33.599999,-8.76886 10.29958,-3.31786 20.667148,-6.58254 30.720001,-10.60446 2.93811,-1.17547 5.71111,-2.92762 8.64,-4.00445 4.89826,-1.80094 9.77139,-2.30391 13.35111,-6.61926 6.72465,-8.10656 3.81974,-21.57457 -5.35111,-26.16 -5.83972,-2.91984 -12.6544,-1.11289 -18.880004,-1.72297 -10.888269,-1.06695 -21.854484,-5.27601 -32.959997,-3.66515"
       id="path3785" />
    <path
       style="fill:#f2b705;stroke:none;fill-opacity:1"
       d="m 101.12,131.98486 c -26.691915,4.0571 -42.112862,38.54914 -29.34815,61.94812 4.432124,8.12453 11.977067,15.02758 19.108147,20.73629 12.064493,9.65809 25.797173,17.6534 40.320003,22.97035 3.83291,1.40328 7.93304,2.06586 11.84,3.24004 9.4762,2.84797 18.64711,7.25133 28.8,5.27703 8.90625,-1.73187 20.72127,-11.57707 17.95406,-21.82371 -0.82484,-3.0543 -3.31143,-5.44121 -5.04592,-8 -4.22508,-6.23297 -8.959,-12.04035 -13.22369,-18.24 -6.94767,-10.1 -13.8177,-20.25242 -20.69631,-30.4 -5.39708,-7.96195 -10.56066,-16.2125 -17.38814,-23.04 -8.52882,-8.52883 -19.90798,-14.55469 -32.32,-12.66812"
       id="path3783" />
    <path
       style="fill:#f2b705;stroke:none;fill-opacity:1"
       d="m 555.52003,18.70485 c -3.793,0.55024 -7.32718,1.00282 -10.56,3.30516 -6.215,4.42617 -8.74539,13.75102 -12.25187,20.24297 -1.68523,3.12008 -3.82559,6.00922 -5.21625,9.28 -5.89199,13.85789 -8.62492,28.68625 -12.25336,43.2 -1.9825,7.93 -5.30621,15.4157 -7.28,23.36 -1.73019,6.96383 -2.99574,14.58422 -2.99851,21.76 -8.6e-4,2.27133 -0.64243,5.53414 1.01039,7.33922 2.96546,3.23867 9.72574,2.6082 13.7096,2.21781 13.11395,-1.28515 22.71141,-11.79601 31.08297,-21.07703 9.54606,-10.58312 20.00446,-20.85977 28.11258,-32.64 4.19934,-6.10117 7.2552,-12.82 10.33633,-19.52 2.23859,-4.86789 4.89191,-9.71016 5.85629,-15.04 1.94871,-10.77 -0.96629,-22.4282 -9.14817,-30.06078 -3.48293,-3.24914 -8.24988,-5.63828 -12.48,-7.77625 -5.10757,-2.58141 -12.065,-5.44039 -17.92,-4.5911"
       id="path3782" />
    <path
       style="fill:#f2b705;stroke:none;fill-opacity:1"
       d="m 316.8,-1.7751502 c -9.96662,1.44578999 -22.70428,4.80922 -26.54075,15.5481302 -3.22134,9.01711 1.48096,21.19492 3.70223,30.08 4.24979,16.99914 8.41526,34.38898 15.29037,50.56 2.76297,6.49883 6.55418,12.57211 9.70815,18.88 2.75349,5.50695 5.13486,11.20016 7.30814,16.96 1.21869,3.22992 1.8474,6.53688 4.10963,9.27852 4.76234,5.77156 15.90199,5.41515 22.58223,4.39703 6.88707,-1.04961 7.31812,-6.78539 8.13187,-12.39555 0.99551,-6.86328 -0.70086,-13.9825 -1.3689,-20.8 -0.50668,-5.17055 -0.23141,-10.806723 -0.037,-16 0.81883,-21.87985 6.07809,-43.57266 3.87704,-65.6 -0.87723,-8.77906 -2.20122,-18.98352 -9.64297,-24.8089102 -6.1127,-4.78500001 -13.26723,-4.03390001 -20.48,-5.08297001 -5.42121,-0.78850999 -11.15114,-1.81249999 -16.64,-1.01624999"
       id="path3749" />
  </g>
</svg>
