<?xml version="1.0" encoding="UTF-8" standalone="no"?>
<!-- Created with Inkscape (http://www.inkscape.org/) -->

<svg
   width="1920"
   height="1080"
   viewBox="0 0 1920 1080"
   version="1.1"
   id="svg5"
   inkscape:version="1.1.1 (3bf5ae0d25, 2021-09-20)"
   sodipodi:docname="marca d'agua svg.svg"
   xmlns:inkscape="http://www.inkscape.org/namespaces/inkscape"
   xmlns:sodipodi="http://sodipodi.sourceforge.net/DTD/sodipodi-0.dtd"
   xmlns="http://www.w3.org/2000/svg"
   xmlns:svg="http://www.w3.org/2000/svg">
  <sodipodi:namedview
     id="namedview7"
     pagecolor="#505050"
     bordercolor="#eeeeee"
     borderopacity="1"
     inkscape:pageshadow="0"
     inkscape:pageopacity="0"
     inkscape:pagecheckerboard="0"
     inkscape:document-units="px"
     showgrid="false"
     inkscape:zoom="0.25"
     inkscape:cx="934"
     inkscape:cy="522"
     inkscape:window-width="1366"
     inkscape:window-height="715"
     inkscape:window-x="-8"
     inkscape:window-y="-8"
     inkscape:window-maximized="1"
     inkscape:current-layer="layer1" />
  <defs
     id="defs2" />
  <g
     inkscape:label="Camada 1"
     inkscape:groupmode="layer"
     id="layer1">
    <path
       style="fill:#f5f5f5;stroke:none;stroke-width:0.32"
       d="m 557.36875,111.92551 c -9.9654,1.31258 -22.7132,4.9039 -26.5312,15.54422 -3.1737,8.8457 1.352,20.71968 3.5319,29.44 4.2813,17.13024 8.5222,34.5376 15.3232,50.88 2.703,6.49536 6.4265,12.6432 9.6653,18.88 2.8364,5.46016 5.1724,11.21152 7.3516,16.96 1.2576,3.3168 1.9136,6.79168 4.2496,9.5952 4.7904,5.75264 15.8688,5.43552 22.5696,4.39008 6.8032,-1.06208 7.3952,-6.76544 8.1344,-12.38528 0.9088,-6.90272 -0.7072,-13.94496 -1.36,-20.8 -0.496,-5.22528 -0.384,-11.08256 -0.026,-16.32 1.4816,-21.6192 6.0384,-43.5312 3.8656,-65.28 -0.88,-8.796 -2.2336,-18.94758 -9.6544,-24.7943 -6.1216,-4.82312 -13.5264,-4.15953 -20.8,-5.15015 -5.3728,-0.73157 -10.8832,-1.67571 -16.32,-0.95977 m 238.72,20.48 c -3.6768,0.48288 -7.0688,0.98601 -10.24,3.09782 -6.3328,4.21571 -8.992,13.64928 -12.4096,20.1264 -1.712,3.24288 -3.9296,6.2224 -5.3728,9.6 -5.9776,13.97696 -8.5056,28.93056 -12.3456,43.52 -2.0544,7.80032 -5.2576,15.19744 -7.1936,23.04 -1.7184,6.97152 -2.9856,14.57312 -2.9984,21.76 0,2.28 -0.6208,5.50528 1.0336,7.3264 2.96,3.25984 9.392,2.51712 13.3664,2.24512 13.2096,-0.90464 23.0656,-11.86496 31.4144,-21.09152 14.7552,-16.30656 29.2544,-31.53792 38.3008,-51.84 2.2816,-5.11808 5.072,-10.09376 6.0448,-15.68 1.8528,-10.64832 -1.104,-22.22496 -9.2,-29.7312 -3.5072,-3.24966 -8.24,-5.63098 -12.48,-7.78685 -5.1488,-2.61734 -12.0192,-5.36102 -17.92,-4.58617 m -454.4,113.28118 c -26.711,3.82592 -42.1068,38.71296 -29.3401,61.94304 4.4643,8.1232 11.9555,15.01216 19.1001,20.736 12.0272,9.63584 25.7984,17.736 40.32,22.9648 3.8452,1.38432 7.929,2.07168 11.84,3.2496 9.392,2.82848 18.4039,7.1136 28.48,5.3328 9.0311,-1.59584 21.4212,-11.80192 18.1693,-22.2032 -0.9072,-2.9024 -3.2585,-5.21152 -4.9392,-7.68 -4.2365,-6.22272 -8.952,-12.04544 -13.2217,-18.24 -7.0308,-10.19936 -13.9901,-20.44768 -20.914,-30.72 -5.2057,-7.72288 -10.2441,-15.79008 -16.8544,-22.4 -8.7142,-8.7136 -19.9497,-14.80064 -32.64,-12.98304 m 303.68,43.51872 c -11.4336,1.50208 -23.0592,1.09664 -34.56,2.88 -26.5952,4.1248 -51.9728,13.22784 -75.84,25.5472 -60.1708,31.05728 -112.2307,88.00032 -123.7008,156.39712 -5.9024,35.1968 -0.4572,73.0816 12.1565,106.24 6.0771,15.9744 14.432,30.9248 25.28,44.16 5.7309,6.992 12.6752,13.1296 19.0643,19.52 20.7162,20.7168 43.6775,40.5568 61.3984,64 8.7088,11.52 16.1351,26.1312 19.1741,40.32 1.2583,5.8752 1.2317,11.6544 1.6391,17.6 0.3548,5.184 0.5625,10.8192 0.336,16 -0.3223,7.3536 -2.3639,12.2656 4.8124,17.1136 17.4048,11.7536 39.0272,7.0528 58.56,7.5296 38.9056,0.9536 78.3232,2.3296 117.12,-1.5488 10.1632,-1.0176 20.3008,-2.192 30.4,-3.76 5.76,-0.8928 11.6544,-1.472 16.96,-4.0576 15.936,-7.7664 20.5984,-34.9536 0.64,-40.9664 -15.3504,-4.624 -32.848,2.0096 -48.32,3.5552 -28.7712,2.8768 -58.112,2.6144 -87.04,2.6144 -8.8288,0 -17.76,-0.01 -26.56,-0.6112 -5.2576,-0.3616 -10.624,-0.1184 -15.68,-1.9776 -7.9296,-2.9184 -10.3968,-16.1088 -12.2016,-23.3312 -1.536,-6.1568 -1.584,-12.8576 -3.3888,-18.88 -4.288,-14.3104 -12.6304,-28.5504 -21.2544,-40.64 -9.8611,-13.824 -21.998,-24.8288 -34.1952,-36.4928 -13.855,-13.248 -27.4326,-27.0912 -39.2243,-42.2272 -37.1494,-47.68 -46.2921,-115.7216 -14.1507,-168.64 11.1254,-18.3168 26.8608,-32.80416 43.455,-46.08 34.4672,-27.57472 77.4976,-45.59072 121.6,-48.61152 14.6176,-1.00096 29.3792,0.68128 43.84,2.7648 30.8928,4.45184 59.5616,15.58496 83.52,36.01376 17.4688,14.89632 32.72,33.07456 41.7824,54.31296 6.0064,14.0768 7.9744,29.8176 15.6352,43.2 5.0944,8.8992 15.6288,11.8784 25.1424,8.6144 8.4288,-2.8896 14.48,-10.9568 14.9184,-19.8144 0.2304,-4.6208 -1.2256,-9.5456 -1.9872,-14.08 -1.152,-6.8768 -1.872,-14.08928 -3.7888,-20.8 -5.2544,-18.42048 -14.4544,-35.96608 -25.0368,-51.84 -26.7296,-40.09664 -69.6448,-67.38464 -116.2656,-78.43712 -15.6096,-3.69984 -31.392,-5.01664 -47.36,-5.40768 -8.7424,-0.21376 -18.1696,-1.32384 -26.88,-0.17952 m -339.52,212.47872 c -4.6451,0.6112 -9.4115,0.3616 -14.08,0.9184 -8.334,0.9888 -16.4486,2.8704 -24.64,4.64 -6.4528,1.392 -14.0656,2.848 -18.8513,7.76 -8.601,8.8288 -9.2314,23.9872 -6.0156,35.1872 1.2039,4.192 2.5476,8.9568 6.3069,11.584 2.7869,1.9456 6.9765,1.856 10.24,1.856 5.1642,0 10.1854,0.5216 15.36,-0.0928 12.3655,-1.4624 24.3389,-5.2992 36.16,-9.0784 10.0842,-3.2192 20.2407,-6.4256 30.08,-10.3488 3.1543,-1.2576 6.138,-3.0752 9.28,-4.2528 4.8868,-1.8304 9.7556,-2.3072 13.3348,-6.6272 6.7155,-8.1056 3.8524,-21.5616 -5.3348,-26.1536 -5.8243,-2.9088 -12.6604,-1.1488 -18.88,-1.7408 -10.9516,-1.0432 -21.7843,-5.1168 -32.96,-3.6512 m 409.28,228.3456 v -227.84 h -52.48 -12.8 l -4.4704,0.512 -0.3296,3.648 v 9.6 36.8 130.88 33.92 8.64 l 0.3296,3.328 4.4704,0.512 h 12.8 52.48 m 20.8,0 h 41.92 10.56 c 1.136,0 3.296,0.4096 4.2464,-0.3296 0.8544,-0.6624 1.088,-2.5248 1.3792,-3.5104 0.8128,-2.7808 1.696,-5.5392 2.5088,-8.32 3.1104,-10.6176 8.176,-21.6992 9.7856,-32.64 h 43.84 11.84 c 1.3344,0 3.536,-0.4096 4.7104,0.3296 0.9888,0.6208 1.1648,2.16 1.4624,3.1904 l 2.2816,8 c 2.16,7.5744 4.3168,15.1488 6.4928,22.72 0.816,2.8384 1.2704,7.4304 3.0176,9.8176 0.8704,1.1872 3.152,0.7424 4.4352,0.7424 h 12.48 37.12 c 5.376,0 12.4512,1.2032 17.6,-0.32 l -52.2496,-166.4 -13.7152,-43.84 -3.904,-12.48 -1.7248,-4.4704 -4.2464,-0.3296 h -10.88 -42.24 -12.16 l -4.4512,0.7424 -2.3136,6.9376 -4.1248,13.44 -14.6208,47.36 -33.6992,109.12 -10.4608,33.92 -4.8896,16.32 m 407.68005,0 v -54.72 h -102.72 v -36.8 h 83.2 v -37.12 -9.6 l -0.3296,-3.648 -5.1104,-0.512 h -15.36 -62.4 v -32.64 h 102.72 v -52.8 h -126.7201 -32.63995 -8.32 l -3.328,0.3296 -0.512,3.1904 v 8.96 36.8 134.4 32.96 8 l 0.512,2.8704 3.328,0.3296 h 8.32 32.63995 126.7201 m 125.12,-227.84 v 71.68 h -0.32 c -2.7328,-5.8624 -11.0496,-10.7232 -16.64,-13.52 -21.5232,-10.7584 -51.4848,-5.7472 -67.7472,12.2432 -21.0528,23.2864 -25.2416,54.5856 -23.1616,84.7968 1.1904,17.2864 5.0848,35.12 15.0784,49.6 16.24,23.5328 49.1648,34.3712 75.5104,21.2 7.776,-3.8912 17.5808,-11.4752 20.16,-20.24 h 0.32 v 22.08 h 62.4 v -227.84 h -65.6 m 459.2,163.84 -34.56,-2.8256 -22.08,-1.9744 c -2.0384,6.4448 -2.2464,13.0656 -6.8256,18.56 -7.632,9.1648 -24,9.2768 -30.3328,-1.6 -7.3504,-12.6208 -6.3968,-30.4288 -5.4304,-44.48 0.4736,-6.8512 1.1072,-14.1312 3.968,-20.48 4.2048,-9.3248 15.3664,-14.1824 24.5408,-8.4896 3.328,2.0672 5.5744,5.3728 7.28,8.8096 1.696,3.4144 2.7264,7.1552 3.472,10.88 0.2304,1.152 0.2048,3.7408 1.2672,4.4576 1.2736,0.8608 4.7424,-0.1664 6.2208,-0.2688 5.5456,-0.3904 11.088,-1.0496 16.64,-1.3216 8.9728,-0.4352 17.9008,-1.904 26.88,-2.2304 1.8624,-0.0672 8.2624,0.272 8.1152,-2.2432 -0.384,-6.5664 -2.4928,-13.44 -4.9152,-19.5136 -16.9088,-42.4 -70.256,-56.832 -110.4,-40.3168 -39.8976,16.4128 -57.2512,60.3968 -50.4192,101.1168 4.2848,25.5488 20.352,48.5472 43.6992,60.2208 14.2048,7.104 30.3296,9.6 46.08,9.216 31.824,-0.7808 60.896,-17.6352 72.336,-48.3168 2.2144,-5.9392 4.4448,-12.8064 4.464,-19.2 m -358.72,-105.92 v 99.2 c 0,17.28 -2.2464,36.5152 6.6784,52.16 13.6928,23.9968 48.7168,27.2544 72.0416,16.7392 10.1888,-4.5952 21.2544,-14.1696 24.32,-25.3792 h 0.32 v 27.2 h 46.08 11.52 c 1.008,0 3.1168,0.3904 3.8304,-0.512 1.296,-1.6352 0.3296,-7.0368 0.3296,-9.088 v -24.96 -97.28 -28.16 c 0,-1.856 1.0016,-8.3904 -0.512,-9.5904 -0.992,-0.784 -3.4144,-0.3296 -4.608,-0.3296 h -12.48 -48.32 v 69.44 c 0,12.2816 1.1744,25.2576 -0.4128,37.44 -1.3312,10.2272 -8.5664,17.92 -19.1072,17.92 -3.2512,0 -6.8256,-0.4928 -9.248,-2.912 -5.7216,-5.7248 -3.552,-18.256 -3.552,-25.568 v -67.84 -21.12 c 0,-1.4944 0.7552,-6.0288 -0.512,-7.0304 -0.992,-0.784 -3.4144,-0.3296 -4.608,-0.3296 h -12.8 -48.96 m -532.48005,9.92 8.8256,31.68 9.4144,33.6 h -36.48 c 0.7872,-5.3536 2.8608,-10.7936 4.3456,-16 2.5792,-9.0528 5.0144,-18.1472 7.5872,-27.2 1.9648,-6.9088 2.9248,-15.7664 6.3072,-22.08 m 410.88005,28.2528 c 7.6192,-0.9376 15.7728,2.0576 18.8736,9.5072 3.0368,7.296 2.2464,15.6416 2.2464,23.36 v 24.96 c 0,6.432 0.2464,12.976 -1.6672,19.2 -2.2368,7.2896 -7.9552,12.7264 -15.6128,13.6672 -11.0176,1.3536 -17.5104,-7.6864 -20.112,-17.1872 -4.6752,-17.0848 -3.3792,-37.5808 0.4064,-54.72 1.9776,-8.9536 5.6768,-17.536 15.8656,-18.7872 m -840.32005,75.8944 c -3.8262,0.6912 -7.5785,2.512 -11.2,3.8784 -14.5305,5.4784 -27.4816,14.3744 -41.92,20.1504 -8.4969,3.3984 -18.7945,3.5616 -24.799,11.344 -10.1309,13.136 0.049,26.9728 10.399,35.6 4.3815,3.6512 9.1946,7.9872 15.36,7.1872 7.9936,-1.0368 14.7428,-7.2224 20.8,-12.0672 8.6183,-6.896 16.5821,-14.5024 24.96,-21.6736 7.1796,-6.144 15.3709,-12.2368 20.5776,-20.2464 6.3421,-9.7568 -1.3955,-26.4704 -14.1776,-24.1728 m 399.1136,79.4624 c -2.752,1.1392 1.9488,6.784 2.8064,8.0704 6.2784,9.4208 8.8064,18.8192 7.6256,30.08 -0.4544,4.3424 -2.0544,8.9024 -4.5664,12.48 -1.9392,2.7616 -5.2992,5.024 -5.5904,8.64 -0.4096,5.088 3.9584,8.8128 6.432,12.8 3.5072,5.6544 5.6512,11.9296 6.2848,18.56 0.8224,8.608 -0.1888,17.3952 -3.9424,25.28 -2.1728,4.5664 -7.4144,9.0912 -7.4144,14.4 0,3.5936 2.6272,6.2144 4.5504,8.96 1.8656,2.6624 3.168,5.6 4.2848,8.64 3.8944,10.624 2.4992,20.192 -1.8144,30.4 -0.5568,1.3184 -2.2304,5.83997 0.8704,5.21597 3.5936,-0.72 7.2704,-4.28157 10.24,-6.28157 7.36,-4.96 14.5856,-10.16 22.08,-14.9184 9.7536,-6.1888 19.6288,-12.2752 29.76,-17.8368 5.4496,-2.9952 13.1008,-5.888 16.9088,-10.9824 4.1344,-5.5296 2.2944,-14.3328 2.2912,-20.7968 -0.01,-13.568 -1.7024,-27.1552 -3.1456,-40.64 -0.7424,-6.9088 -1.0432,-15.0016 -3.856,-21.44 -3.0688,-7.0336 -12.0096,-10.3008 -18.2784,-13.8944 -15.0848,-8.6496 -30.208,-17.2224 -45.12,-26.1696 -4.8896,-2.9344 -9.6192,-6.2496 -14.72,-8.816 -1.4624,-0.7392 -3.9648,-2.464 -5.6864,-1.7504 m 105.6,59.28 c -1.2224,0.7232 -1.0272,2.3296 -0.8448,3.5104 0.4832,3.1232 1.3824,6.2016 2.0896,9.28 2.6624,11.5872 2.3104,22.5088 1.8848,34.24 -0.09,2.5088 -0.7104,5.1712 -0.2496,7.68 0.1888,1.04 0.9472,2.2432 2.1664,1.8144 2.7648,-0.9664 5.632,-5.2064 7.68,-7.2544 5.2544,-5.2544 10.8992,-10.112 14.5856,-16.64 1.904,-3.3728 3.3088,-7.2224 1.3024,-10.88 -1.8528,-3.3728 -5.4816,-5.5072 -8.528,-7.68 -4.2976,-3.0624 -8.4256,-6.3584 -12.48,-9.7312 -1.5392,-1.2832 -5.3248,-5.6864 -7.6064,-4.3392 m -146.6336,16.4448 c -10.9504,1.44 -22.0064,1.5232 -32.96,2.8384 -20.1792,2.4192 -39.8272,5.7248 -60.16,6.6144 -18.3072,0.8032 -36.704,-1.2672 -55.04,-1.2672 -7.3696,0 -14.7232,0.5504 -22.08,0.64 -6.0896,0.0704 -12.9248,-0.336 -18.56,2.3424 -5.0112,2.3808 -9.0592,7.5392 -11.5904,12.3776 -1.4912,2.8576 -2.4512,6.0416 -2.4896,9.28 -0.029,2.4832 0.2048,4.9568 0.88,7.36 4.7104,16.8032 26.8224,15.68 40.72,15.68 16.2656,0 32.6752,1.0208 48.96,0.3072 24.7904,-1.0848 49.5232,-2.9824 74.24,-5.3728 11.4208,-1.104 22.8384,-2.16 34.24,-3.5232 5.568,-0.6688 12.8448,-0.7712 17.92,-3.2448 13.6864,-6.6656 19.2672,-28.0192 7.3056,-39.1776 -4.9888,-4.6528 -14.8384,-5.712 -21.3856,-4.8544 m -5.76,71.68 c -9.5776,1.264 -18.0576,5.5776 -27.52,7.3504 -34.1344,6.3968 -67.5968,11.3056 -102.4,9.7824 -15.2736,-0.6688 -34.7264,-4.2432 -43.1136,12.4928 -1.2896,2.576 -2.272,5.44637 -2.592,8.31997 -2.0608,18.4224 15.6576,26.928 31.6256,26.2272 20.0672,-0.88 40.1184,-3.3792 60.16,-4.7584 19.3504,-1.3344 38.7776,-2.2016 57.92,-5.6544 8.976,-1.616 17.936,-3.2736 26.88,-5.0624 5.0912,-1.0176 10.592,-1.664 15.36,-3.8112 14.0768,-6.3424 20.5024,-27.31197 8.6368,-38.92797 -5.9296,-5.8016 -16.992,-7.0048 -24.9568,-5.9584 z"
       id="path1426" />
    <path
       style="fill:#000000;stroke-width:0.32"
       id="path1370"
       d="" />
    <path
       style="fill:#000000;stroke-width:0.32"
       id="path1184"
       d="" />
    <path
       style="fill:#000000;stroke-width:0.32"
       id="path1092"
       d="" />
    <path
       style="fill:#000000;stroke-width:0.32"
       id="path982"
       d="" />
    <path
       style="fill:#000000;stroke-width:0.32"
       id="path836"
       d="" />
  </g>
</svg>
